<?xml version="1.0" encoding="utf-8"?>
<!-- Generator: Adobe Illustrator 16.0.0, SVG Export Plug-In . SVG Version: 6.00 Build 0)  -->
<!DOCTYPE svg PUBLIC "-//W3C//DTD SVG 1.1//EN" "http://www.w3.org/Graphics/SVG/1.1/DTD/svg11.dtd">
<svg version="1.1" id="Layer_1" xmlns="http://www.w3.org/2000/svg" xmlns:xlink="http://www.w3.org/1999/xlink" x="0px" y="0px"
	 width="854.498px" height="188.945px" viewBox="0 0 854.498 188.945" enable-background="new 0 0 854.498 188.945"
	 xml:space="preserve">
<g>
	<path fill="#FCF8F2" d="M159.217,0v43.613H36.751v28.984h122.465v116.348H0v-43.613h122.466v-29.121H0V0H159.217z"/>
	<path fill="#FCF8F2" d="M316.64,20.244v38.94H207.295v25.879H316.64v103.882H174.482v-38.94h109.344v-26.001H174.482V20.244H316.64
		z"/>
	<path fill="#FCF8F2" d="M331.041,20.244h142.158v168.701H331.041V20.244z M363.854,150.005h76.531v-90.82h-76.531V150.005z"/>
	<path fill="#FCF8F2" d="M648.833,0l-57.488,94.473l57.488,94.473h-45.392l-34.793-57.285l-34.908,57.285h-45.276l57.488-94.473
		L488.464,0h45.276l34.908,57.285L603.441,0H648.833z"/>
	<path fill="#FCF8F2" d="M807.284,20.244l-51.329,84.351l51.329,84.351h-40.528l-31.064-51.147l-31.168,51.147h-40.426
		l51.329-84.351l-51.329-84.351h40.426l31.168,51.147l31.064-51.147H807.284z"/>
	<path fill="#FCF8F2" d="M821.685,20.244h32.813v168.701h-32.813V20.244z"/>
</g>
</svg>
